<mxfile host="app.diagrams.net" agent="Mozilla/5.0 (X11; Linux x86_64) AppleWebKit/537.36 (KHTML, like Gecko) Chrome/130.0.0.0 Safari/537.36" version="24.8.6">
  <diagram name="Page-1" id="z5fmGJPP3th1Ei5BAoYL">
    <mxGraphModel dx="839" dy="439" grid="1" gridSize="10" guides="1" tooltips="1" connect="1" arrows="1" fold="1" page="1" pageScale="1" pageWidth="850" pageHeight="1100" math="0" shadow="0">
      <root>
        <mxCell id="0" />
        <mxCell id="1" parent="0" />
        <mxCell id="JpGi4ImuMt96x8bfsphP-1" value="Backend:&lt;br&gt;Restful&lt;br&gt;Flask API" style="rounded=0;whiteSpace=wrap;html=1;" vertex="1" parent="1">
          <mxGeometry x="320" y="100" width="65" height="300" as="geometry" />
        </mxCell>
        <mxCell id="JpGi4ImuMt96x8bfsphP-2" value="Frontend:&lt;br&gt;Simple HTML WebPage" style="rounded=0;whiteSpace=wrap;html=1;" vertex="1" parent="1">
          <mxGeometry x="90" y="100" width="70" height="300" as="geometry" />
        </mxCell>
        <mxCell id="JpGi4ImuMt96x8bfsphP-14" value="Dynamically created pool of Chord Node processes communicating through RPC" style="swimlane;whiteSpace=wrap;html=1;startSize=50;" vertex="1" parent="1">
          <mxGeometry x="480" y="100" width="290" height="290" as="geometry" />
        </mxCell>
        <mxCell id="JpGi4ImuMt96x8bfsphP-10" value="" style="ellipse;whiteSpace=wrap;html=1;aspect=fixed;fillColor=none;" vertex="1" parent="JpGi4ImuMt96x8bfsphP-14">
          <mxGeometry x="55" y="85" width="180" height="180" as="geometry" />
        </mxCell>
        <mxCell id="JpGi4ImuMt96x8bfsphP-4" value="ni" style="ellipse;whiteSpace=wrap;html=1;aspect=fixed;" vertex="1" parent="JpGi4ImuMt96x8bfsphP-14">
          <mxGeometry x="50" y="120" width="30" height="30" as="geometry" />
        </mxCell>
        <mxCell id="JpGi4ImuMt96x8bfsphP-6" value="..." style="ellipse;whiteSpace=wrap;html=1;aspect=fixed;" vertex="1" parent="JpGi4ImuMt96x8bfsphP-14">
          <mxGeometry x="50" y="200" width="30" height="30" as="geometry" />
        </mxCell>
        <mxCell id="JpGi4ImuMt96x8bfsphP-7" value="..." style="ellipse;whiteSpace=wrap;html=1;aspect=fixed;" vertex="1" parent="JpGi4ImuMt96x8bfsphP-14">
          <mxGeometry x="210" y="120" width="30" height="30" as="geometry" />
        </mxCell>
        <mxCell id="JpGi4ImuMt96x8bfsphP-8" value="n8" style="ellipse;whiteSpace=wrap;html=1;aspect=fixed;" vertex="1" parent="JpGi4ImuMt96x8bfsphP-14">
          <mxGeometry x="130" y="250" width="30" height="30" as="geometry" />
        </mxCell>
        <mxCell id="JpGi4ImuMt96x8bfsphP-9" value="n5" style="ellipse;whiteSpace=wrap;html=1;aspect=fixed;" vertex="1" parent="JpGi4ImuMt96x8bfsphP-14">
          <mxGeometry x="210" y="200" width="30" height="30" as="geometry" />
        </mxCell>
        <mxCell id="JpGi4ImuMt96x8bfsphP-5" value="n0" style="ellipse;whiteSpace=wrap;html=1;aspect=fixed;" vertex="1" parent="JpGi4ImuMt96x8bfsphP-14">
          <mxGeometry x="130" y="70" width="30" height="30" as="geometry" />
        </mxCell>
        <mxCell id="JpGi4ImuMt96x8bfsphP-23" value="RPC" style="text;html=1;align=center;verticalAlign=middle;whiteSpace=wrap;rounded=0;" vertex="1" parent="JpGi4ImuMt96x8bfsphP-14">
          <mxGeometry x="150" y="140" width="60" height="30" as="geometry" />
        </mxCell>
        <mxCell id="JpGi4ImuMt96x8bfsphP-27" value="v1" style="text;html=1;align=center;verticalAlign=middle;whiteSpace=wrap;rounded=0;" vertex="1" parent="JpGi4ImuMt96x8bfsphP-14">
          <mxGeometry x="140" y="260" width="60" height="30" as="geometry" />
        </mxCell>
        <mxCell id="JpGi4ImuMt96x8bfsphP-33" value="" style="endArrow=classic;startArrow=classic;html=1;rounded=0;entryX=1;entryY=1;entryDx=0;entryDy=0;exitX=0;exitY=0;exitDx=0;exitDy=0;fillColor=#e51400;strokeColor=#B20000;" edge="1" parent="JpGi4ImuMt96x8bfsphP-14" source="JpGi4ImuMt96x8bfsphP-9" target="JpGi4ImuMt96x8bfsphP-5">
          <mxGeometry width="50" height="50" relative="1" as="geometry">
            <mxPoint x="-220" y="380" as="sourcePoint" />
            <mxPoint x="-170" y="330" as="targetPoint" />
          </mxGeometry>
        </mxCell>
        <mxCell id="JpGi4ImuMt96x8bfsphP-34" value="" style="endArrow=classic;startArrow=classic;html=1;rounded=0;entryX=0;entryY=0.5;entryDx=0;entryDy=0;exitX=0.701;exitY=0.115;exitDx=0;exitDy=0;exitPerimeter=0;fillColor=#e51400;strokeColor=#B20000;" edge="1" parent="JpGi4ImuMt96x8bfsphP-14" source="JpGi4ImuMt96x8bfsphP-8" target="JpGi4ImuMt96x8bfsphP-9">
          <mxGeometry width="50" height="50" relative="1" as="geometry">
            <mxPoint x="-100" y="400" as="sourcePoint" />
            <mxPoint x="-50" y="350" as="targetPoint" />
          </mxGeometry>
        </mxCell>
        <mxCell id="JpGi4ImuMt96x8bfsphP-21" value="n0.put(k1, v1)" style="text;html=1;align=center;verticalAlign=middle;resizable=0;points=[];autosize=1;strokeColor=none;fillColor=none;rotation=0;" vertex="1" parent="1">
          <mxGeometry x="390" y="150" width="100" height="30" as="geometry" />
        </mxCell>
        <mxCell id="JpGi4ImuMt96x8bfsphP-22" value="POST /api/post&lt;br&gt;n=n0, k=k1, v=v1" style="text;html=1;align=center;verticalAlign=middle;resizable=0;points=[];autosize=1;strokeColor=none;fillColor=none;" vertex="1" parent="1">
          <mxGeometry x="179.48" y="140" width="120" height="40" as="geometry" />
        </mxCell>
        <mxCell id="JpGi4ImuMt96x8bfsphP-30" value="{&quot;result&quot;: true}" style="text;html=1;align=center;verticalAlign=middle;resizable=0;points=[];autosize=1;strokeColor=none;fillColor=none;" vertex="1" parent="1">
          <mxGeometry x="184.48" y="180" width="100" height="30" as="geometry" />
        </mxCell>
        <mxCell id="JpGi4ImuMt96x8bfsphP-31" value="GET /api/get?n=n8&amp;amp;k=k1" style="text;html=1;align=center;verticalAlign=middle;resizable=0;points=[];autosize=1;strokeColor=none;fillColor=none;" vertex="1" parent="1">
          <mxGeometry x="160" y="330" width="160" height="30" as="geometry" />
        </mxCell>
        <mxCell id="JpGi4ImuMt96x8bfsphP-32" value="" style="endArrow=classic;startArrow=classic;html=1;rounded=0;entryX=0.039;entryY=0.34;entryDx=0;entryDy=0;entryPerimeter=0;fillColor=#e51400;strokeColor=#B20000;" edge="1" parent="1" target="JpGi4ImuMt96x8bfsphP-5">
          <mxGeometry width="50" height="50" relative="1" as="geometry">
            <mxPoint x="381" y="180" as="sourcePoint" />
            <mxPoint x="440" y="190" as="targetPoint" />
          </mxGeometry>
        </mxCell>
        <mxCell id="JpGi4ImuMt96x8bfsphP-35" value="" style="endArrow=classic;startArrow=classic;html=1;rounded=0;entryX=0.008;entryY=0.437;entryDx=0;entryDy=0;entryPerimeter=0;fillColor=#e51400;strokeColor=#B20000;" edge="1" parent="1">
          <mxGeometry width="50" height="50" relative="1" as="geometry">
            <mxPoint x="161.48" y="180" as="sourcePoint" />
            <mxPoint x="320.0000000000001" y="181.10000000000002" as="targetPoint" />
          </mxGeometry>
        </mxCell>
        <mxCell id="JpGi4ImuMt96x8bfsphP-36" value="" style="endArrow=classic;startArrow=classic;html=1;rounded=0;exitX=1.011;exitY=0.863;exitDx=0;exitDy=0;exitPerimeter=0;fillColor=#0050ef;strokeColor=#001DBC;" edge="1" parent="1" source="JpGi4ImuMt96x8bfsphP-2">
          <mxGeometry width="50" height="50" relative="1" as="geometry">
            <mxPoint x="230" y="360" as="sourcePoint" />
            <mxPoint x="320" y="359" as="targetPoint" />
          </mxGeometry>
        </mxCell>
        <mxCell id="JpGi4ImuMt96x8bfsphP-37" value="{&quot;result&quot;: v1}" style="text;html=1;align=center;verticalAlign=middle;resizable=0;points=[];autosize=1;strokeColor=none;fillColor=none;" vertex="1" parent="1">
          <mxGeometry x="189.48" y="360" width="90" height="30" as="geometry" />
        </mxCell>
        <mxCell id="JpGi4ImuMt96x8bfsphP-38" value="" style="endArrow=classic;startArrow=classic;html=1;rounded=0;entryX=0;entryY=0.5;entryDx=0;entryDy=0;exitX=0.987;exitY=0.882;exitDx=0;exitDy=0;exitPerimeter=0;fillColor=#0050ef;strokeColor=#001DBC;" edge="1" parent="1" source="JpGi4ImuMt96x8bfsphP-1" target="JpGi4ImuMt96x8bfsphP-8">
          <mxGeometry width="50" height="50" relative="1" as="geometry">
            <mxPoint x="390" y="290" as="sourcePoint" />
            <mxPoint x="440" y="240" as="targetPoint" />
          </mxGeometry>
        </mxCell>
        <mxCell id="JpGi4ImuMt96x8bfsphP-41" value="True" style="text;html=1;align=center;verticalAlign=middle;whiteSpace=wrap;rounded=0;rotation=0;" vertex="1" parent="1">
          <mxGeometry x="400" y="180" width="60" height="30" as="geometry" />
        </mxCell>
        <mxCell id="JpGi4ImuMt96x8bfsphP-42" value="n8.get(k1)" style="text;html=1;align=center;verticalAlign=middle;whiteSpace=wrap;rounded=0;rotation=0;" vertex="1" parent="1">
          <mxGeometry x="410" y="330" width="60" height="40" as="geometry" />
        </mxCell>
        <mxCell id="JpGi4ImuMt96x8bfsphP-43" value="v1" style="text;html=1;align=center;verticalAlign=middle;whiteSpace=wrap;rounded=0;rotation=0;" vertex="1" parent="1">
          <mxGeometry x="410" y="360" width="60" height="40" as="geometry" />
        </mxCell>
      </root>
    </mxGraphModel>
  </diagram>
</mxfile>
